HIERARCHY
ROOT Hips
{
	OFFSET -3.958830 18.904000 13.208200
	CHANNELS 6 Xposition Yposition Zposition Zrotation Yrotation Xrotation 
	JOINT LHipJoint
	{
		OFFSET 0.000000 0.000000 0.000000
		CHANNELS 3 Zrotation Yrotation Xrotation
		JOINT LeftUpLeg
		{
			OFFSET 1.800000 -1.400000 0.085000
			CHANNELS 3 Zrotation Yrotation Xrotation
			JOINT LeftLeg
			{
				OFFSET 2.215000 -6.000000 0.000000
				CHANNELS 3 Zrotation Yrotation Xrotation
				JOINT LeftFoot
				{
					OFFSET 2.500000 -6.900000 0.000000
					CHANNELS 3 Zrotation Yrotation Xrotation
					JOINT LeftToeBase
					{
						OFFSET 0.200000 -0.500000 1.950000
						CHANNELS 3 Zrotation Yrotation Xrotation
						End Site
						{
							OFFSET 0.000000 0.000000 0.000000
						}
					}
				}
			}
		}
	}
	JOINT RHipJoint
	{
		OFFSET 0.000000 0.000000 0.000000
		CHANNELS 3 Zrotation Yrotation Xrotation
		JOINT RightUpLeg
		{
			OFFSET -1.800000 -1.400000 0.085000
			CHANNELS 3 Zrotation Yrotation Xrotation
			JOINT RightLeg
			{
				OFFSET -2.215000 -6.000000 0.000000
				CHANNELS 3 Zrotation Yrotation Xrotation
				JOINT RightFoot
				{
					OFFSET -2.500000 -6.900000 0.000000
					CHANNELS 3 Zrotation Yrotation Xrotation
					JOINT RightToeBase
					{
						OFFSET -0.200000 -0.500000 1.950000
						CHANNELS 3 Zrotation Yrotation Xrotation
						End Site
						{
							OFFSET 0.000000 0.000000 0.000000
						}
					}
				}
			}
		}
	}
	JOINT LowerBack
	{
		OFFSET 0.000000 0.000000 0.000000
		CHANNELS 3 Zrotation Yrotation Xrotation
		JOINT Spine
		{
			OFFSET -0.087000 1.940000 -0.288900
			CHANNELS 3 Zrotation Yrotation Xrotation
			JOINT Spine1
			{
				OFFSET 0.000000 1.950000 0.060000
				CHANNELS 3 Zrotation Yrotation Xrotation
				JOINT Neck
				{
					OFFSET 0.000000 0.000000 0.000000
					CHANNELS 3 Zrotation Yrotation Xrotation
					JOINT Neck1
					{
						OFFSET 0.000000 1.600000 0.340000
						CHANNELS 3 Zrotation Yrotation Xrotation
						JOINT Head
						{
							OFFSET 0.000000 1.667000 -0.240000
							CHANNELS 3 Zrotation Yrotation Xrotation
							End Site
							{
								OFFSET 0.000000 0.000000 0.000000
							}
						}
					}
				}
				JOINT LeftShoulder
				{
					OFFSET 0.000000 0.000000 0.000000
					CHANNELS 3 Zrotation Yrotation Xrotation
					JOINT LeftArm
					{
						OFFSET 2.700000 1.550000 -0.730000
						CHANNELS 3 Zrotation Yrotation Xrotation
						JOINT LeftForeArm
						{
							OFFSET 5.450000 0.000000 0.000000
							CHANNELS 3 Zrotation Yrotation Xrotation
							JOINT LeftHand
							{
								OFFSET 3.450000 0.000000 0.000000
								CHANNELS 3 Zrotation Yrotation Xrotation
								JOINT LeftHandIndex1
								{
									OFFSET 0.750000 0.000000 0.000000
									CHANNELS 3 Zrotation Yrotation Xrotation
									End Site
									{
										OFFSET 0.000000 0.000000 0.000000
									}
								}
							}
						}
					}
				}
				JOINT RightShoulder
				{
					OFFSET 0.000000 0.000000 0.000000
					CHANNELS 3 Zrotation Yrotation Xrotation
					JOINT RightArm
					{
						OFFSET -2.700000 1.550000 -0.730000
						CHANNELS 3 Zrotation Yrotation Xrotation
						JOINT RightForeArm
						{
							OFFSET -5.450000 0.000000 0.000000
							CHANNELS 3 Zrotation Yrotation Xrotation
							JOINT RightHand
							{
								OFFSET -3.450000 0.000000 0.000000
								CHANNELS 3 Zrotation Yrotation Xrotation
								JOINT RightHandIndex1
								{
									OFFSET -0.750000 0.000000 0.000000
									CHANNELS 3 Zrotation Yrotation Xrotation
									End Site
									{
										OFFSET 0.000000 0.000000 0.000000
									}
								}
							}
						}
					}
				}
			}
		}
	}
}
MOTION
Frames: 14
Frame Time: 0.016667
-0.440010 17.232850 -1.067790 -18.412054 -76.573180 23.948822 -15.371245 13.527285 3.497143 4.415231 -2.266344 -28.005311 -4.449347 5.004388 14.763321 -0.549569 2.866227 3.402822 0.743680 0.746730 0.304540 17.887601 -10.137433 3.466574 -5.768021 4.063244 -16.819359 15.835941 -3.897771 7.336537 -0.221319 -2.939142 3.314288 0.503250 -0.018190 -0.045620 -2.267374 -2.824352 -8.294085 3.193739 4.089143 16.178359 2.185712 5.836951 17.617595 4.254226 -5.004841 -18.016817 -10.639658 -4.278911 32.122980 11.208790 -9.545690 -20.195090 -7.400786 -33.399797 12.401095 -59.697136 -61.165106 16.700713 23.963442 -55.536212 -17.943180 -3.047575 2.967767 0.282040 -0.197990 0.072080 0.264900 0.624250 42.005326 5.379394 -5.842302 24.924616 -4.131826 -14.489116 0.639326 -1.491471 2.900034 -1.325099 0.008440 0.300740 -0.217980 0.000410 
-0.384450 17.263850 -0.984010 -17.155958 -78.430514 24.671898 -15.399587 13.363828 3.546981 3.285838 -2.591244 -27.338793 -5.732137 4.664502 11.786166 -0.560342 2.674249 3.494627 0.717160 0.718730 0.276390 17.894641 -10.026691 3.484418 -5.940692 4.243307 -17.974587 15.143842 -3.305924 5.545635 -0.173919 -2.753790 3.381769 0.489690 -0.008810 -0.050880 -2.517738 -2.905705 -8.260522 4.555902 3.264291 15.392605 1.028476 5.195350 16.595599 4.500355 -6.451458 -17.556978 -13.160429 -3.606305 30.649094 10.758050 -9.638260 -19.972320 -6.431859 -32.104659 11.271725 -61.930068 -56.860354 14.994834 12.223865 -61.921847 -14.064185 -3.062587 3.177614 0.269480 -0.193100 0.051740 0.256340 -0.776255 41.157305 5.978492 -7.047725 24.099989 -4.075224 -14.116335 0.172411 -1.406725 2.913852 -1.284892 0.003750 0.296010 -0.199320 0.005390 
-0.336940 17.284020 -0.893960 -16.906014 -80.144573 26.090121 -15.419463 13.191105 3.613286 2.338756 -2.852729 -26.632282 -7.142816 4.338275 8.726331 -0.534284 2.558532 3.565924 0.675870 0.664010 0.251240 17.905402 -9.908050 3.524751 -6.121955 4.445796 -18.727931 14.630716 -2.731419 3.513024 -0.146690 -2.619542 3.436072 0.448530 -0.001410 -0.048200 -2.843189 -3.023255 -8.286666 6.757549 2.151709 15.130896 -0.970011 4.535176 15.208714 4.917298 -7.901662 -17.476661 -15.878741 -2.823223 29.372994 10.258490 -9.673820 -19.374110 -5.798002 -30.783502 9.961749 -61.660142 -51.885448 12.448879 -7.429544 -66.430840 -3.602656 -3.076138 3.448875 0.261720 -0.191660 0.038670 0.246100 -2.208084 40.318792 7.041857 -8.081941 22.662247 -3.819924 -13.263941 0.599479 -1.271662 2.914761 -1.223134 0.004250 0.280300 -0.182630 0.010770 
-0.303510 17.291540 -0.802820 -17.129175 -81.773327 27.645906 -15.407712 12.981202 3.635500 1.352039 -3.099156 -26.024874 -8.431475 4.195844 6.906351 -0.504966 2.532121 3.595149 0.653710 0.635280 0.228720 17.957642 -9.829380 3.548048 -6.425025 4.522134 -19.059340 14.150264 -2.234984 1.524308 -0.137669 -2.563146 3.462960 0.427780 0.000860 -0.056950 -3.239983 -3.008036 -8.253219 9.329950 1.000000 14.770683 -3.358827 3.940510 13.914227 5.184870 -9.178646 -17.197704 -18.263235 -2.047558 27.807625 10.269770 -9.734500 -19.083780 -5.696579 -29.042646 8.855575 -61.391461 -46.899326 10.980687 -29.209519 -68.238130 10.279074 -3.118977 3.633535 0.255110 -0.199430 0.024320 0.242770 -2.932209 38.937052 7.894032 -8.654733 21.570977 -3.598891 -13.001085 1.322376 -1.209945 2.895504 -1.197810 0.003280 0.270130 -0.174890 0.017300 
-0.271800 17.294280 -0.729490 -12.357548 -83.403758 23.930403 -15.447789 12.861101 3.649516 0.136184 -3.375417 -25.408445 -9.109570 4.114802 6.038493 -0.464365 2.519208 3.623307 0.633020 0.599110 0.207120 17.947622 -9.789704 3.525973 -6.975279 4.372958 -19.381860 13.108632 -1.898392 0.157410 -0.117907 -2.502882 3.495925 0.398880 0.017000 -0.053590 -3.517469 -3.051020 -8.176883 10.505322 0.079563 14.427983 -4.831900 3.322391 12.664284 5.060927 -10.326213 -16.965706 -20.594105 -1.064445 26.518050 10.431020 -9.824580 -18.405540 -5.532473 -27.330467 7.985967 -60.855172 -41.721530 9.592287 -49.626935 -67.149987 23.282583 -3.232274 3.690391 0.243160 -0.198890 0.007990 0.248210 -2.837075 37.672373 8.712820 -8.586940 20.593168 -3.920341 -14.316861 2.282893 -1.318067 2.867259 -1.245422 0.008000 0.258150 -0.170090 0.030330 
-0.249440 17.291840 -0.652000 -6.014558 -84.445610 18.137574 -15.497303 12.803109 3.671523 -0.849618 -3.504913 -24.470614 -9.920327 4.120989 5.322235 -0.429454 2.555955 3.631427 0.602860 0.563350 0.182970 17.913570 -9.798894 3.480598 -7.276993 4.135797 -19.642231 11.786107 -1.721184 -0.480302 -0.094412 -2.415907 3.537364 0.375350 0.032610 -0.067780 -3.811793 -3.059825 -8.112276 11.968115 -0.939200 14.407740 -6.344016 2.617709 11.307691 4.923751 -11.052319 -16.842753 -22.472866 0.027563 26.088049 10.721220 -9.767800 -17.846710 -5.402591 -25.943081 6.867655 -59.193873 -37.624777 7.662223 -63.553755 -60.014169 28.378690 -3.327140 3.668348 0.243950 -0.203760 -0.002960 0.247310 -2.748311 36.361948 9.700944 -8.200321 19.225150 -4.010228 -14.949319 2.479226 -1.319473 2.860437 -1.244626 -0.003370 0.268470 -0.159250 0.038380 
-0.235470 17.282910 -0.575960 -1.964753 -85.259169 14.051941 -15.529888 12.838984 3.677558 -1.592201 -3.542929 -23.473019 -10.182138 4.211695 5.561059 -0.425365 2.622694 3.613528 0.596180 0.543290 0.185920 17.884635 -9.911207 3.364623 -6.846929 3.709526 -20.018665 9.779676 -1.792254 0.254630 -0.052694 -2.275598 3.582361 0.370730 0.040520 -0.057940 -4.074795 -3.027928 -7.974268 13.658488 -2.061067 14.546927 -7.465049 1.805777 10.577777 4.646770 -11.481491 -16.652908 -23.598271 0.948853 25.459403 10.141470 -9.317020 -17.059460 -5.189337 -24.793878 6.036762 -56.104491 -34.960958 6.337826 -69.913029 -54.298124 28.792626 -3.349092 3.685230 0.238170 -0.192380 -0.014770 0.239190 -2.540738 34.918497 10.479550 -8.359718 17.793957 -3.876711 -14.845998 2.476705 -1.270825 2.846557 -1.243987 -0.007240 0.259440 -0.148850 0.033120 
-0.235500 17.271340 -0.509580 1.758278 -85.673730 9.286069 -15.551980 13.009853 3.693525 -1.840415 -3.310751 -21.573122 -10.677301 4.447446 5.984249 -0.411571 2.762778 3.565171 0.593940 0.533800 0.207970 17.836960 -10.118247 3.184081 -6.158791 3.126794 -20.255253 7.423824 -2.114583 2.821457 -0.024814 -2.085694 3.641871 0.362710 0.014080 -0.067830 -4.261730 -2.995949 -7.800506 15.202009 -3.258788 15.552152 -8.621178 1.057956 9.980157 4.628550 -11.812201 -16.510429 -24.886921 1.903251 25.615009 9.715350 -8.639000 -17.643030 -5.239950 -22.878507 5.403140 -53.260261 -31.638347 5.161726 -74.866414 -49.347047 28.380283 -3.322058 3.661645 0.276290 -0.215620 0.006840 0.222810 -2.573393 32.820603 11.284605 -7.399610 15.843142 -3.730626 -15.199850 3.889338 -1.256216 2.781402 -1.229337 -0.019250 0.266970 -0.146940 0.013250 
-0.253140 17.248250 -0.452300 5.917096 -85.086116 3.801574 -15.550454 13.242845 3.707367 -1.832257 -2.873843 -18.933070 -11.280683 4.732600 6.149220 -0.344227 2.951509 3.512266 0.576110 0.512530 0.208710 17.807439 -10.313021 3.000826 -5.294695 2.555515 -20.578555 4.451202 -2.283536 5.758621 -0.000291 -1.893650 3.717234 0.331990 0.000870 -0.077810 -4.385128 -2.986242 -7.627833 16.376383 -4.822007 16.498403 -9.846437 -0.101182 9.228937 4.673761 -11.970957 -16.535903 -25.894926 3.132837 26.027160 10.124490 -7.916170 -17.970730 -6.350039 -21.363039 5.447141 -50.424432 -27.162206 3.432704 -77.861945 -45.764848 27.482607 -3.281806 3.641100 0.304490 -0.238270 0.027310 0.215820 -1.618940 30.959186 11.787885 -5.950010 14.256625 -3.765159 -16.024832 4.318273 -1.243109 2.763207 -1.222290 -0.020620 0.270560 -0.148240 0.009650 
-0.281060 17.219700 -0.395010 3.626546 -84.163662 4.712466 -15.513843 13.411124 3.717251 -1.264628 -2.383706 -16.594546 -12.004702 5.037783 6.214254 -0.253070 3.140347 3.453406 0.546220 0.473280 0.205910 17.813130 -10.538149 2.851175 -3.857434 2.214225 -20.901931 1.154304 -2.306200 9.515885 0.008399 -1.782344 3.760595 0.280610 -0.028420 -0.087390 -4.522687 -2.991715 -7.466440 18.397713 -6.578989 17.376488 -11.067017 -1.274663 7.888551 4.763909 -12.222769 -16.776193 -27.447106 4.363141 26.860163 10.278800 -7.287480 -17.766480 -7.895265 -20.041643 5.639730 -46.846242 -22.739457 2.122946 -80.637785 -42.330495 26.606174 -3.227809 3.636445 0.330670 -0.270030 0.049880 0.203230 -0.218981 29.357727 12.233915 -4.136706 12.422646 -3.994713 -17.366664 4.193774 -1.218809 2.780097 -1.231909 -0.012960 0.250250 -0.151280 0.005040 
-0.303640 17.179640 -0.339990 3.570031 -82.558489 3.131219 -15.481709 13.574969 3.756213 -0.470395 -1.854046 -13.868555 -13.314477 5.386518 5.686968 -0.171433 3.453462 3.361246 0.505560 0.414510 0.200260 17.827354 -10.674437 2.691295 -2.777968 2.137670 -21.682106 -2.241376 -2.234917 15.186020 -0.004861 -1.891531 3.712415 0.236390 -0.034420 -0.096070 -4.555837 -3.050479 -7.328890 19.680060 -8.457553 18.264458 -11.993097 -2.766402 6.973419 4.785971 -12.290553 -16.798335 -28.309536 5.281606 27.377371 10.156020 -6.722210 -17.459890 -9.099007 -18.640774 5.822255 -43.183048 -18.651212 0.893632 -82.406855 -39.956106 25.839333 -3.203725 3.614541 0.360390 -0.283690 0.055160 0.184360 0.920319 27.438133 12.534038 -2.337059 9.959492 -4.060740 -18.176695 5.647079 -1.233248 2.730091 -1.226664 -0.029180 0.248390 -0.135570 -0.008500 
-0.320980 17.138300 -0.284590 1.129432 -80.906675 4.040718 -15.446684 13.634739 3.736227 0.572053 -1.492287 -11.913378 -14.262918 5.775248 5.985817 -0.062399 3.694395 3.269787 0.501800 0.401380 0.208580 17.859015 -10.770505 2.632070 -1.335183 2.275174 -22.324136 -5.384890 -1.969588 20.642080 -0.076976 -2.231515 3.573875 0.198710 -0.072420 -0.077990 -4.638433 -3.027855 -7.221439 21.482645 -10.465609 19.073603 -13.272968 -4.260578 5.835518 4.860887 -12.302591 -16.623829 -28.691491 5.955454 27.637571 10.328750 -6.219870 -17.376560 -10.870622 -17.039992 5.962694 -39.147185 -14.367397 -0.215838 -83.897672 -38.516054 25.789615 -3.158403 3.661204 0.369070 -0.309370 0.082310 0.177280 2.458191 25.238344 12.527638 -0.882794 7.197020 -3.974823 -18.517458 7.404214 -1.205062 2.699675 -1.245977 0.004110 0.198120 -0.149200 -0.007010 
-0.348280 17.095950 -0.245520 0.811557 -80.183801 2.665775 -15.420634 13.728858 3.707974 1.398264 -1.231661 -10.128898 -15.012597 6.362825 7.340011 0.037928 3.959372 3.170630 0.484990 0.388180 0.206120 17.878831 -10.810753 2.631088 0.259564 2.324618 -22.294724 -8.861537 -1.335158 24.759695 -0.172853 -2.625623 3.432176 0.165120 -0.109870 -0.092320 -4.647509 -3.045768 -7.197936 21.954125 -11.811017 20.445517 -13.963220 -5.284074 4.446812 4.880470 -12.316644 -16.530480 -29.201878 6.730275 28.383660 11.032740 -5.698480 -17.883050 -12.778813 -15.426906 6.015633 -35.314604 -9.928088 -1.354062 -83.901207 -37.039416 24.901848 -3.105467 3.662115 0.393990 -0.347920 0.109840 0.165890 4.290318 23.347576 12.542354 0.051460 4.423129 -3.650211 -17.534424 8.602505 -0.973809 2.691312 -1.204509 0.015260 0.179870 -0.157190 -0.009370 
-0.370160 17.040990 -0.221860 1.972001 -78.928884 -0.275966 -15.380371 13.829844 3.695372 2.308028 -1.170322 -8.630659 -16.011460 7.182107 9.521964 0.132648 4.352042 3.027600 0.480020 0.368940 0.235800 17.912596 -10.804774 2.644911 1.749549 2.212849 -21.984939 -12.289843 -0.560035 27.900858 -0.283745 -3.066009 3.271304 0.137520 -0.147790 -0.087910 -4.573638 -3.110850 -7.229470 21.217939 -12.882726 21.858685 -14.121131 -6.349368 3.578495 4.835955 -11.909165 -16.289055 -28.240579 6.800888 29.334345 10.627790 -4.961490 -18.115140 -14.347219 -14.240686 6.003784 -30.731561 -5.880309 -2.292662 -83.898252 -36.174568 24.443582 -3.074141 3.668475 0.420480 -0.367700 0.134090 0.149500 5.792258 21.633748 12.529083 1.404075 2.527096 -3.110291 -16.045846 6.871486 -0.590390 2.742685 -1.175644 0.021060 0.152650 -0.167830 -0.030320 
